# xmcd
#
# Track frame offsets: 
#        150
#        19070
#        39685
#        56980
#        95535
#        113679
#        137757
#        172210
#        189042
#        209352
#        232084
#
# Disc length: 3294 seconds
#
# Revision: 0
# Processed by: cddbd v1.5.2PL0 Copyright (c) Steve Scherf et al.
# Submitted via: ExactAudioCopy v0.95b4
#
DISCID=9c0cdc0b
DTITLE=Lynn Adler - Bird On The Wing
DYEAR=2002
DGENRE=Country
TTITLE0=Big City
TTITLE1=Rock And A Hard Place
TTITLE2=Lullabye
TTITLE3=The Hyder's Daughter
TTITLE4=Things Unsaid
TTITLE5=Public Display of Affection
TTITLE6=Hold Me, Terlingua
TTITLE7=Carry On
TTITLE8=If I Had Wings - That Voice
TTITLE9=Island In The Sky
TTITLE10=If I HAd Wings
EXTD=
EXTT0=
EXTT1=
EXTT2=
EXTT3=
EXTT4=
EXTT5=
EXTT6=
EXTT7=
EXTT8=
EXTT9=
EXTT10=
PLAYORDER=
